<svg xmlns="http://www.w3.org/2000/svg" xmlns:xlink="http://www.w3.org/1999/xlink" width="940" zoomAndPan="magnify" viewBox="0 0 705 591.000005" height="788" preserveAspectRatio="xMidYMid meet" version="1.0"><defs><g/><clipPath id="6969147ad3"><path d="M 0.59375 0 L 704.402344 0 L 704.402344 590 L 0.59375 590 Z M 0.59375 0 " clip-rule="nonzero"/></clipPath><clipPath id="c084aaf24c"><path d="M 7 70 L 144 70 L 144 195 L 7 195 Z M 7 70 " clip-rule="nonzero"/></clipPath><clipPath id="347ae09a95"><path d="M -15.46875 101.082031 L 122.328125 61.386719 L 153.003906 167.863281 L 15.207031 207.5625 Z M -15.46875 101.082031 " clip-rule="nonzero"/></clipPath><clipPath id="c32a601516"><path d="M 125.066406 60.597656 L -12.730469 100.292969 L 17.945312 206.773438 L 155.742188 167.074219 Z M 125.066406 60.597656 " clip-rule="nonzero"/></clipPath></defs><g clip-path="url(#6969147ad3)"><path fill="#ffffff" d="M 0.59375 0 L 704.40625 0 L 704.40625 590 L 0.59375 590 Z M 0.59375 0 " fill-opacity="1" fill-rule="nonzero"/><path fill="#fafafa" d="M 0.59375 0 L 704.40625 0 L 704.40625 590 L 0.59375 590 Z M 0.59375 0 " fill-opacity="1" fill-rule="nonzero"/></g><g fill="#12078b" fill-opacity="1"><g transform="translate(335.034968, 526.236048)"><g><path d="M 204.75 -218.75 L 361 0 L 59.265625 0 L 59.265625 -375 L 361 -375 Z M 190.734375 -204.75 L 79.203125 -93.21875 L 79.203125 -19.9375 L 322.734375 -19.9375 Z M 190.734375 -204.75 "/></g></g></g><g fill="#000000" fill-opacity="1"><g transform="translate(8.588959, 526.236048)"><g><path d="M 74.890625 0 L 74.890625 -375 L 231.6875 -375 C 257.90625 -375 280.535156 -370.148438 299.578125 -360.453125 C 321.484375 -349.316406 338.898438 -333.421875 351.828125 -312.765625 C 364.765625 -292.117188 371.234375 -269.398438 371.234375 -244.609375 C 371.234375 -219.828125 364.851562 -197.019531 352.09375 -176.1875 C 339.34375 -155.351562 322.015625 -139.367188 300.109375 -128.234375 C 281.429688 -118.535156 258.625 -113.6875 231.6875 -113.6875 L 172.953125 -113.6875 L 172.953125 0 Z M 74.890625 0 "/></g></g></g><g clip-path="url(#c084aaf24c)"><g clip-path="url(#347ae09a95)"><g clip-path="url(#c32a601516)"><path fill="#000000" d="M 111.277344 135.441406 C 110.4375 135.4375 109.566406 135.230469 109.566406 135.230469 C 109.566406 135.230469 109.65625 135.160156 109.953125 135.144531 C 110.253906 135.125 111.574219 134.5 112.089844 134.445312 L 112.527344 135.488281 C 112.523438 135.472656 112.113281 135.4375 111.277344 135.441406 Z M 101.390625 141.761719 C 99.234375 141.144531 94.246094 140.652344 94.246094 140.652344 C 94.246094 140.652344 94.277344 140.464844 94.375 140.039062 C 94.472656 139.613281 94.320312 139.089844 94.21875 138.585938 C 94.21875 138.585938 94.570312 138.8125 95.160156 138.796875 C 95.75 138.777344 97.058594 138.511719 97.058594 138.511719 C 97.058594 138.511719 98.824219 138.664062 100.195312 139.453125 C 101.566406 140.246094 106.460938 143.332031 106.460938 143.332031 C 106.460938 143.332031 103.550781 142.375 101.390625 141.761719 Z M 110.515625 88.550781 C 109.835938 87.867188 109.28125 87.324219 109.210938 87.082031 C 109.140625 86.839844 108.828125 86.046875 108.675781 85.074219 C 108.53125 84.101562 108.539062 80.488281 106.121094 77.265625 C 103.695312 74.042969 101.300781 73.679688 100.507812 73.070312 C 99.714844 72.460938 98.105469 70.546875 94.734375 70.464844 C 91.363281 70.378906 90.863281 71.402344 88.683594 72.386719 C 86.5 73.371094 85.664062 74.757812 85.171875 75.78125 C 84.671875 76.804688 82.316406 77.484375 81.371094 79.078125 C 80.421875 80.671875 80.359375 81.390625 80.15625 83.128906 C 79.953125 84.863281 79.71875 85.277344 80.070312 86.5 C 80.421875 87.71875 82.179688 88.617188 82.179688 88.617188 C 82.179688 88.617188 83.300781 91.597656 84.640625 93.195312 C 85.980469 94.789062 88.046875 95.558594 88.011719 95.871094 C 87.96875 96.191406 88.011719 100.605469 88.496094 100.90625 C 88.980469 101.207031 91.273438 99.84375 91.472656 100.007812 C 91.671875 100.171875 92.285156 100.917969 92.457031 101.046875 C 92.628906 101.175781 93.398438 101.019531 93.398438 101.019531 C 93.398438 101.019531 93.304688 101.84375 93.632812 102.207031 C 93.957031 102.578125 94.351562 102.328125 94.699219 102.558594 C 95.050781 102.789062 95.300781 103.117188 96.082031 104.074219 C 96.867188 105.035156 97.664062 105.644531 98.882812 104.769531 C 100.105469 103.890625 101.714844 101.835938 101.882812 101.894531 C 102.054688 101.957031 102.484375 102.535156 102.484375 102.535156 C 102.484375 102.535156 101.722656 106.101562 101.800781 106.433594 C 101.875 106.769531 102.285156 107.109375 103.050781 107.480469 C 103.820312 107.851562 104.128906 108.777344 104.113281 109.019531 C 104.097656 109.261719 103.492188 116.949219 104.101562 119.058594 C 104.710938 121.171875 104.214844 120.214844 105.039062 121.695312 C 105.863281 123.175781 106.015625 124.320312 105.90625 124.707031 C 105.796875 125.09375 105.5625 125.507812 105.226562 125.699219 C 104.882812 125.882812 102.621094 126.449219 102.371094 126.785156 C 102.113281 127.121094 102.183594 127.363281 101.789062 127.527344 C 101.394531 127.683594 99.386719 127.738281 96.496094 127.644531 C 93.605469 127.554688 92.28125 127.539062 92.28125 127.539062 C 92.28125 127.539062 90.03125 126.90625 88.644531 127.621094 C 87.265625 128.324219 80.402344 130.960938 79.632812 131.496094 C 78.863281 132.023438 75.859375 134.125 74.140625 135.363281 C 72.414062 136.609375 71.75 136.882812 71.75 136.882812 C 71.75 136.882812 64.808594 138.308594 64.605469 138.460938 C 64.402344 138.601562 64.292969 138.660156 64.183594 138.664062 C 64.074219 138.671875 63.199219 138.839844 63.199219 138.839844 C 63.199219 138.839844 48.746094 117.398438 48.507812 117.332031 C 48.269531 117.265625 48.210938 117.410156 48.140625 117.464844 C 48.070312 117.515625 44.011719 121.863281 43.976562 122.269531 C 43.941406 122.679688 60.820312 148.019531 61.382812 148.296875 C 61.949219 148.574219 65.550781 147.800781 65.550781 147.800781 C 65.550781 147.800781 65.988281 148.25 66.453125 148.160156 C 66.910156 148.070312 68.488281 147.878906 68.488281 147.878906 C 68.488281 147.878906 57.230469 160.453125 55.722656 161.949219 C 54.210938 163.441406 51.003906 163.925781 47.609375 167.105469 C 44.214844 170.285156 42.875 172.078125 42.417969 172.300781 C 41.953125 172.519531 39.976562 172.386719 38.085938 172.847656 C 36.191406 173.308594 34.222656 174.402344 33.679688 174.996094 C 33.148438 175.589844 32.953125 175.824219 31.664062 176.542969 C 30.371094 177.269531 29.449219 178.324219 24.46875 178.175781 C 19.496094 178.023438 14.125 177.109375 11.675781 177.015625 C 9.226562 176.925781 8.984375 176.996094 8.097656 178.351562 C 7.207031 179.710938 8.59375 182.078125 10.257812 183.855469 C 11.910156 185.621094 18.980469 190.148438 20.621094 190.777344 C 22.257812 191.40625 28.738281 190.683594 28.742188 191.164062 C 28.746094 191.648438 28.5 192.472656 29.335938 192.753906 C 30.164062 193.042969 33.097656 194.050781 34.046875 193.820312 C 34.996094 193.589844 35.394531 193.433594 35.394531 193.433594 C 35.394531 193.433594 37.085938 193.960938 40.234375 194.324219 C 43.378906 194.699219 45.988281 193.988281 47.796875 193.207031 C 49.59375 192.425781 54.058594 191.578125 54.058594 191.578125 C 54.058594 191.578125 54.085938 192.585938 54.566406 192.574219 C 55.050781 192.574219 60.550781 191.648438 61.378906 190.699219 C 62.207031 189.757812 62.40625 188.777344 62.40625 188.777344 C 62.40625 188.777344 63.433594 185.753906 63.339844 184.984375 C 63.253906 184.210938 63.472656 183.625 63.472656 183.625 C 63.472656 183.625 67.335938 181.894531 68.375 179.707031 C 69.417969 177.507812 69.765625 177.363281 69.648438 175.417969 C 69.527344 173.46875 70.085938 172.824219 70.085938 172.824219 C 70.085938 172.824219 72.992188 170.53125 73.878906 169.175781 C 74.765625 167.820312 74.472656 168.039062 75.152344 166.566406 C 75.828125 165.089844 77.394531 163.976562 77.972656 163.507812 C 78.539062 163.039062 79.886719 162.515625 79.886719 162.515625 C 79.886719 162.515625 93.296875 167.199219 97.722656 168.472656 C 102.140625 169.757812 104.765625 169.703125 105.273438 170.082031 C 105.78125 170.460938 106.84375 170.46875 108.0625 170.734375 C 109.285156 171.003906 116.453125 172.808594 119.960938 172.28125 C 123.457031 171.753906 125.652344 171.257812 125.800781 170.859375 C 125.949219 170.460938 134.546875 168.824219 136.578125 165.636719 C 138.605469 162.453125 139.800781 161.542969 139.800781 161.542969 C 139.800781 161.542969 141.960938 160.921875 142.15625 160.6875 C 142.351562 160.453125 142.042969 158.914062 142.03125 158.257812 C 142.019531 157.597656 144.558594 149.296875 143.640625 146.121094 C 142.726562 142.945312 144.003906 141.265625 143.726562 136.941406 C 143.445312 132.617188 143.46875 131.46875 143.0625 128.238281 C 142.660156 125.011719 140.722656 114.914062 137.636719 109.109375 C 134.558594 103.304688 124.726562 95.925781 122.339844 94.671875 C 119.957031 93.421875 118.824219 93.925781 118.179688 93.363281 C 117.535156 92.804688 116.53125 92.382812 115.980469 92.320312 C 115.4375 92.257812 114.542969 92.210938 114.566406 91.847656 C 114.597656 91.484375 114.757812 90.515625 114 90.027344 C 113.242188 89.542969 111.492188 88 111.25 88.042969 C 110.996094 88.105469 110.515625 88.550781 110.515625 88.550781 Z M 81.394531 135.019531 C 81.140625 135.050781 79.957031 135.296875 79.957031 135.296875 C 79.957031 135.296875 80.515625 134.917969 80.828125 134.792969 C 81.132812 134.671875 81.6875 134.597656 81.6875 134.597656 Z M 81.394531 135.019531 " fill-opacity="1" fill-rule="evenodd"/></g></g></g></svg>