<svg xmlns="http://www.w3.org/2000/svg" xmlns:xlink="http://www.w3.org/1999/xlink" width="940" zoomAndPan="magnify" viewBox="0 0 705 591.000005" height="788" preserveAspectRatio="xMidYMid meet" version="1.0"><defs><g/><clipPath id="f2f0bed0a1"><path d="M 0.59375 0 L 704.402344 0 L 704.402344 590 L 0.59375 590 Z M 0.59375 0 " clip-rule="nonzero"/></clipPath><clipPath id="56616a3a46"><path d="M 22 66 L 151 66 L 151 183 L 22 183 Z M 22 66 " clip-rule="nonzero"/></clipPath><clipPath id="1c5426c7da"><path d="M 0.597656 94.941406 L 130.019531 57.65625 L 158.832031 157.664062 L 29.410156 194.949219 Z M 0.597656 94.941406 " clip-rule="nonzero"/></clipPath><clipPath id="4b11993407"><path d="M 132.59375 56.914062 L 3.171875 94.199219 L 31.980469 194.210938 L 161.40625 156.921875 Z M 132.59375 56.914062 " clip-rule="nonzero"/></clipPath></defs><g clip-path="url(#f2f0bed0a1)"><path fill="#ffffff" d="M 0.59375 0 L 704.40625 0 L 704.40625 590 L 0.59375 590 Z M 0.59375 0 " fill-opacity="1" fill-rule="nonzero"/><path fill="#ffffff" d="M 0.59375 0 L 704.40625 0 L 704.40625 590 L 0.59375 590 Z M 0.59375 0 " fill-opacity="1" fill-rule="nonzero"/></g><g fill="#12078b" fill-opacity="1"><g transform="translate(329.804688, 494.26265)"><g><path d="M 192.296875 -205.46875 L 339.0625 0 L 55.671875 0 L 55.671875 -352.21875 L 339.0625 -352.21875 Z M 179.140625 -192.296875 L 74.390625 -87.546875 L 74.390625 -18.71875 L 303.125 -18.71875 Z M 179.140625 -192.296875 "/></g></g></g><g fill="#000000" fill-opacity="1"><g transform="translate(23.193083, 494.26265)"><g><path d="M 70.34375 0 L 70.34375 -352.21875 L 217.609375 -352.21875 C 242.234375 -352.21875 263.488281 -347.664062 281.375 -338.5625 C 301.945312 -328.101562 318.304688 -313.171875 330.453125 -293.765625 C 342.597656 -274.367188 348.671875 -253.03125 348.671875 -229.75 C 348.671875 -206.46875 342.679688 -185.039062 330.703125 -165.46875 C 318.734375 -145.90625 302.457031 -130.894531 281.875 -120.4375 C 264.332031 -111.332031 242.910156 -106.78125 217.609375 -106.78125 L 162.453125 -106.78125 L 162.453125 0 Z M 70.34375 0 "/></g></g></g><g clip-path="url(#56616a3a46)"><g clip-path="url(#1c5426c7da)"><g clip-path="url(#4b11993407)"><path fill="#000000" d="M 119.640625 127.210938 C 118.851562 127.207031 118.035156 127.015625 118.035156 127.015625 C 118.035156 127.015625 118.117188 126.949219 118.398438 126.933594 C 118.679688 126.914062 119.921875 126.328125 120.40625 126.273438 L 120.816406 127.253906 C 120.8125 127.238281 120.429688 127.207031 119.640625 127.210938 Z M 110.359375 133.148438 C 108.332031 132.570312 103.644531 132.105469 103.644531 132.105469 C 103.644531 132.105469 103.675781 131.929688 103.765625 131.53125 C 103.859375 131.128906 103.714844 130.636719 103.621094 130.164062 C 103.621094 130.164062 103.953125 130.378906 104.503906 130.363281 C 105.058594 130.347656 106.289062 130.09375 106.289062 130.09375 C 106.289062 130.09375 107.945312 130.238281 109.234375 130.980469 C 110.519531 131.722656 115.117188 134.625 115.117188 134.625 C 115.117188 134.625 112.386719 133.722656 110.359375 133.148438 Z M 118.925781 83.171875 C 118.289062 82.527344 117.765625 82.015625 117.703125 81.789062 C 117.636719 81.5625 117.34375 80.820312 117.199219 79.90625 C 117.0625 78.992188 117.070312 75.597656 114.800781 72.570312 C 112.519531 69.542969 110.273438 69.203125 109.527344 68.632812 C 108.78125 68.058594 107.269531 66.261719 104.105469 66.183594 C 100.9375 66.101562 100.46875 67.066406 98.421875 67.988281 C 96.371094 68.914062 95.585938 70.214844 95.121094 71.175781 C 94.652344 72.136719 92.441406 72.773438 91.550781 74.273438 C 90.660156 75.769531 90.601562 76.445312 90.410156 78.078125 C 90.222656 79.707031 90 80.097656 90.328125 81.242188 C 90.660156 82.390625 92.3125 83.234375 92.3125 83.234375 C 92.3125 83.234375 93.363281 86.03125 94.625 87.53125 C 95.882812 89.03125 97.824219 89.75 97.789062 90.046875 C 97.75 90.347656 97.789062 94.496094 98.246094 94.777344 C 98.703125 95.058594 100.855469 93.777344 101.042969 93.933594 C 101.230469 94.085938 101.804688 94.785156 101.964844 94.90625 C 102.128906 95.027344 102.851562 94.882812 102.851562 94.882812 C 102.851562 94.882812 102.761719 95.65625 103.066406 95.996094 C 103.375 96.347656 103.746094 96.113281 104.070312 96.328125 C 104.402344 96.542969 104.632812 96.851562 105.371094 97.75 C 106.109375 98.652344 106.855469 99.226562 108 98.402344 C 109.148438 97.578125 110.660156 95.648438 110.820312 95.703125 C 110.980469 95.761719 111.382812 96.304688 111.382812 96.304688 C 111.382812 96.304688 110.667969 99.652344 110.742188 99.96875 C 110.808594 100.28125 111.195312 100.601562 111.917969 100.949219 C 112.636719 101.296875 112.929688 102.167969 112.914062 102.394531 C 112.898438 102.621094 112.332031 109.84375 112.902344 111.828125 C 113.472656 113.808594 113.007812 112.910156 113.78125 114.300781 C 114.558594 115.691406 114.699219 116.765625 114.597656 117.128906 C 114.496094 117.492188 114.273438 117.882812 113.960938 118.0625 C 113.636719 118.234375 111.511719 118.765625 111.277344 119.082031 C 111.035156 119.398438 111.101562 119.625 110.730469 119.777344 C 110.359375 119.925781 108.472656 119.976562 105.757812 119.890625 C 103.046875 119.804688 101.800781 119.789062 101.800781 119.789062 C 101.800781 119.789062 99.6875 119.195312 98.386719 119.867188 C 97.089844 120.527344 90.644531 123.003906 89.921875 123.507812 C 89.195312 124 86.375 125.976562 84.761719 127.140625 C 83.140625 128.308594 82.515625 128.566406 82.515625 128.566406 C 82.515625 128.566406 75.996094 129.90625 75.808594 130.046875 C 75.613281 130.179688 75.511719 130.234375 75.410156 130.242188 C 75.308594 130.246094 74.484375 130.402344 74.484375 130.402344 C 74.484375 130.402344 60.914062 110.265625 60.6875 110.203125 C 60.460938 110.140625 60.40625 110.277344 60.339844 110.328125 C 60.277344 110.378906 56.464844 114.457031 56.429688 114.84375 C 56.398438 115.226562 72.253906 139.027344 72.78125 139.289062 C 73.308594 139.546875 76.695312 138.820312 76.695312 138.820312 C 76.695312 138.820312 77.105469 139.242188 77.539062 139.15625 C 77.96875 139.074219 79.453125 138.890625 79.453125 138.890625 C 79.453125 138.890625 68.878906 150.707031 67.460938 152.109375 C 66.042969 153.511719 63.03125 153.964844 59.84375 156.953125 C 56.65625 159.9375 55.398438 161.621094 54.964844 161.832031 C 54.53125 162.039062 52.671875 161.914062 50.898438 162.34375 C 49.121094 162.777344 47.269531 163.804688 46.761719 164.363281 C 46.261719 164.921875 46.078125 165.140625 44.863281 165.816406 C 43.652344 166.5 42.785156 167.488281 38.105469 167.351562 C 33.4375 167.207031 28.390625 166.347656 26.089844 166.261719 C 23.792969 166.175781 23.5625 166.242188 22.730469 167.515625 C 21.894531 168.789062 23.199219 171.015625 24.757812 172.683594 C 26.3125 174.34375 32.953125 178.59375 34.492188 179.1875 C 36.03125 179.777344 42.121094 179.097656 42.121094 179.550781 C 42.125 180.003906 41.894531 180.777344 42.679688 181.042969 C 43.457031 181.3125 46.214844 182.261719 47.105469 182.042969 C 47.996094 181.828125 48.367188 181.679688 48.367188 181.679688 C 48.367188 181.679688 49.960938 182.175781 52.914062 182.519531 C 55.871094 182.867188 58.320312 182.203125 60.015625 181.46875 C 61.707031 180.734375 65.902344 179.9375 65.902344 179.9375 C 65.902344 179.9375 65.925781 180.886719 66.378906 180.875 C 66.832031 180.871094 71.996094 180.003906 72.773438 179.113281 C 73.554688 178.226562 73.742188 177.304688 73.742188 177.304688 C 73.742188 177.304688 74.707031 174.464844 74.617188 173.746094 C 74.535156 173.019531 74.742188 172.46875 74.742188 172.46875 C 74.742188 172.46875 78.371094 170.839844 79.347656 168.785156 C 80.328125 166.722656 80.652344 166.589844 80.539062 164.757812 C 80.425781 162.929688 80.953125 162.324219 80.953125 162.324219 C 80.953125 162.324219 83.683594 160.171875 84.515625 158.898438 C 85.351562 157.621094 85.074219 157.828125 85.710938 156.445312 C 86.347656 155.058594 87.820312 154.015625 88.359375 153.574219 C 88.894531 153.132812 90.160156 152.640625 90.160156 152.640625 C 90.160156 152.640625 102.753906 157.039062 106.910156 158.238281 C 111.058594 159.441406 113.527344 159.394531 114.003906 159.75 C 114.480469 160.105469 115.476562 160.113281 116.625 160.363281 C 117.769531 160.613281 124.503906 162.308594 127.796875 161.8125 C 131.082031 161.320312 133.144531 160.851562 133.28125 160.480469 C 133.421875 160.105469 141.5 158.566406 143.40625 155.574219 C 145.3125 152.582031 146.433594 151.726562 146.433594 151.726562 C 146.433594 151.726562 148.460938 151.144531 148.644531 150.921875 C 148.828125 150.703125 148.539062 149.257812 148.527344 148.640625 C 148.515625 148.023438 150.898438 140.226562 150.039062 137.242188 C 149.179688 134.261719 150.382812 132.683594 150.117188 128.621094 C 149.855469 124.5625 149.878906 123.480469 149.496094 120.449219 C 149.117188 117.414062 147.300781 107.929688 144.402344 102.480469 C 141.511719 97.03125 132.273438 90.097656 130.035156 88.921875 C 127.792969 87.746094 126.730469 88.21875 126.125 87.691406 C 125.519531 87.167969 124.578125 86.769531 124.058594 86.710938 C 123.550781 86.652344 122.710938 86.609375 122.730469 86.265625 C 122.757812 85.925781 122.910156 85.015625 122.199219 84.558594 C 121.488281 84.105469 119.84375 82.652344 119.617188 82.695312 C 119.378906 82.753906 118.925781 83.171875 118.925781 83.171875 Z M 91.574219 126.816406 C 91.335938 126.847656 90.226562 127.078125 90.226562 127.078125 C 90.226562 127.078125 90.75 126.71875 91.042969 126.605469 C 91.328125 126.488281 91.847656 126.417969 91.847656 126.417969 Z M 91.574219 126.816406 " fill-opacity="1" fill-rule="evenodd"/></g></g></g></svg>